<?xml version="1.0" encoding="UTF-8"?>
<svg id="Paper" xmlns="http://www.w3.org/2000/svg" viewBox="0 0 2590.97 1378.65">
  <defs>
    <style>
      .cls-1 {
        stroke: #54997e;
        stroke-width: 8px;
      }

      .cls-1, .cls-2, .cls-3, .cls-4, .cls-5, .cls-6, .cls-7, .cls-8 {
        fill: none;
      }

      .cls-1, .cls-5 {
        stroke-miterlimit: 10;
      }

      .cls-9 {
        fill: #8b848c;
      }

      .cls-9, .cls-10, .cls-11, .cls-12, .cls-13, .cls-14 {
        stroke-width: 0px;
      }

      .cls-10 {
        fill: #e6e4e6;
      }

      .cls-11 {
        fill: #c7bbc7;
      }

      .cls-12 {
        fill: #7e7780;
      }

      .cls-2 {
        stroke-width: 5px;
      }

      .cls-2, .cls-3, .cls-4, .cls-15, .cls-6, .cls-7, .cls-8 {
        stroke-linecap: round;
        stroke-linejoin: round;
      }

      .cls-2, .cls-5 {
        stroke: #d9d3d9;
      }

      .cls-13, .cls-15 {
        fill: #a097a1;
      }

      .cls-3 {
        stroke: #7f7880;
      }

      .cls-3, .cls-4, .cls-15, .cls-6, .cls-7, .cls-8 {
        stroke-width: 3px;
      }

      .cls-4 {
        stroke: #c7bbc7;
      }

      .cls-5 {
        stroke-width: 4px;
      }

      .cls-15, .cls-6 {
        stroke: #a097a1;
      }

      .cls-14 {
        fill: #3b6b58;
      }

      .cls-7 {
        stroke: #8b848c;
      }

      .cls-8 {
        stroke: #7e7780;
      }
    </style>
  </defs>
  <g id="Back">
    <path id="Blue_Background" data-name="Blue Background" class="cls-14" d="m637.35,312.33l-.56,674.64c0,5.56,6.18,19.89,22.05,23.66h542.18c1.8.01,3.56.49,5.11,1.41,7.71,4.54,34.54,17.65,63,.3,1.57-.96,3.38-1.47,5.22-1.47l541.09.31c19.95-4.26,23.95-20.25,23.95-25.81l-.61-667.93c-1.68-18.68-18.36-24.85-23.92-24.85l-1158.81.55s-11.58,2.65-18.7,19.2Z"/>
    <path id="R_Page_Bottom_BG" data-name="R Page Bottom BG" class="cls-12" d="m1812,985.57s-68.47,22.4-194.63,10.57c0,0-145.44-11.9-337.06,10.55-191.62,22.45,0,0,0,0l-15.2,2.17-6.58-3.22s155.7-26.92,271.63-19.06,0,0,0,0c0,0,96.3,2.46,118.65,4.05,0,0,119.11.6,150.71-8.33l13.46-2.18-.99,5.45Z"/>
    <path id="R_Page_Bottom" data-name="R Page Bottom" class="cls-8" d="m1264.32,1008.62s4.52-1.26,11.23-1.76c51.51-3.85,164.67-22.92,370-8.81,0,0,116.1,5.46,166.63-12.29l.55-5.77"/>
    <path id="R_Page_Mid_BG" data-name="R Page Mid BG" class="cls-9" d="m1817.43,958.58l2.01,18.52s-47.43,17.12-157.32,13.17l-29.4.87s-119.93-8.41-181.05-4.86c0,0-141.83,5.94-194.3,19.52l-6.79-3.56s111.04-20.07,200.23-21.25c0,0,135.55-2.36,192.79,4.59l173.83-27Z"/>
    <path id="R_Page_Mid" data-name="R Page Mid" class="cls-7" d="m1256.8,1005.65s140.83-31.66,378.19-15.04c0,0,135.15,3.37,184.6-12.9,0,0-10.73-96.56-3.27-113.82"/>
    <path id="R_Page_Top" data-name="R Page Top" class="cls-15" d="m1700.73,980.24c-42.51,5.69-63.76,4.19-63.76,4.19-202.59-8.88-258.78-3.26-388.88,17.8l5.44-16.01,239.52-23.84,207.67,17.86"/>
    <path id="L_Page_Bottom" data-name="L Page Bottom" class="cls-3" d="m1211.42,1008.63s-187.11-29.26-352.2-22.2c0,0-39.33-.77-186.18,11.08l.38-5.05"/>
    <path id="L_Page_Side" data-name="L Page Side" class="cls-4" d="m674.42,797.22c3.77-226.42-9.59-492.53-9.59-492.53,0,0,145.81,12.14,238.39-.31"/>
    <path class="cls-12" d="m674.01,993.49l.14,3.49s185.71-13.33,187.44-10.61c0,0,208.07-3.26,332.13,20.53l19.76,2.2,12.44-5.12s-101.02-20.67-215.2-21.96c-106.07-1.2,0,0,0,0,0,0-130.28-.61-137.39.22s-31.19-2.02-156.81,6.25l-42.52,5.01Z"/>
    <path class="cls-9" d="m667.97,959.05s3.59,8.48.9,33.72c0,0,136.22-15.3,223.38-10.06,0,0,215.27-8.1,329.58,20.48l7.22-.11,4.85-2.55-84.36-25.69-200.03-4.76-281.54-11.03"/>
    <path id="Book_Spine" data-name="Book Spine" class="cls-6" d="m736.69,313.43c-21.44-.17-66.47-4.57-66.47-4.57,0,0,28.37,334.49-10.06,639.64l-.42,4.66s55.02,34.8,255.02,24.76c0,0,190.34-22.44,321.74,23.41l-29.46,9.29,34.07-10.96,29.21,11.49"/>
    <path id="Cover_Outline" data-name="Cover Outline" class="cls-1" d="m1838.88,319.23c.69,112.95-.13,552.3-.35,665.43-.03,14.75-11.99,26.69-26.74,26.69h-541.26s-32.57,21.13-63.95,0h-542.73c-14.77,0-26.74-11.97-26.74-26.74V319.39c0-14.77,11.97-26.74,26.74-26.74h1148.29c14.71,0,26.65,11.87,26.74,26.57Z"/>
  </g>
  <g id="BG_s" data-name="BG s">
    <path class="cls-11" d="m662.58,937.03c13.2-69.28,12.79-259.65,12.79-259.65-4.41-237.76-9.79-372.27-9.79-372.27,0,0,49.61,7.15,176.15,3.78,0,0-142.92,22.48-154.67,52.51l-7.21,18.09,56.17,559.99-73.43-2.46Z"/>
    <path class="cls-13" d="m939.67,975.68c169.48-15.51,290.83,23.76,290.83,23.76l7.63-12.13-188.93-49.6-371.82,20.47s66.34,30.24,262.3,17.49Z"/>
    <path class="cls-10" d="m687.29,358.85s20.52-39.18,51.62-47.58c0,0,61.38,17.09,244.29-20.71,0,0,135.92-48.87,257.46,24.41,0,0,119.44-67.34,264.29-20.89,0,0,135.2,30.02,314.68,8.77,0,0-19.65,248.64,3.31,651.31,0,0-94.66,37.17-226.48,25.07,0,0-172.97-20.06-353.96,20.3,0,0-138.55-60.07-275.33-34.36,0,0-144.98,22.98-306.37-12.04,0,0,36.63-103.9,25.49-385.51l-5.84-176.91s-2.52-8.11,6.84-31.86Z"/>
  </g>
  <path id="R_Page_Mid-2" data-name="R Page Mid" class="cls-7" d="m668.01,957.23s3.51,13.05.39,36.14c0,0,108.59-13.73,192.22-10.61,0,0,207.74-11.76,363.45,19.39"/>
  <g id="Shadow">
    <path class="cls-13" d="m681.14,383.91s13.91-24.82,55.31-35.63c0,0-.13-8.61-48.85,11.77,0,0-5.97,7.46-6.46,23.86Z"/>
  </g>
  <path id="Main_Page_Outline" data-name="Main Page Outline" class="cls-2" d="m1240.6,315.58v683.56s157.88-41.18,403.84-16.99c0,0,99.28,1.73,178.48-27.42,0,0-30-310.07-1.65-653.71,0,0-132.78,26.1-318.66-8.08,0,0-136.08-46.89-261.86,21.2,0,0-107.23-72.85-267.1-20.71,0,0-171.32,33.81-234.35,16.04,0,0-8.59,1.72-4.58,37.24,0,0-37.41,4.93-48.3,15.24,0,0-6.99,11.4-6.62,33.83,0,0,27.73,434.62-20.95,557.86,0,0,124.45,30.14,297.27,12.63,0,0,138.98-30.61,284.38,32.81"/>
  <path id="Main_Page_Outline_2" data-name="Main Page Outline 2" class="cls-5" d="m686.42,361.98s12.62-33.95,52.88-52.49"/>
</svg>